<svg xmlns="http://www.w3.org/2000/svg" viewBox="0 0 770 1202"><defs><style>.cls-1{fill:#ef5b25;}.cls-2{fill:#89b738;}.cls-3{fill:#f2e812;}</style></defs><title>Rityta 1</title><g id="Lager_2" data-name="Lager 2"><path class="cls-1" d="M749,836.72a10.74,10.74,0,0,1-1.4-4.15c0-.1-.09-.19-.12-.3l-60-109.94c-.12-.17-.23-.35-.33-.53L596.54,601s-24.2-24.2-150.66-234.24S460.26-2.92,455.37,0C445.29,6.07,326.3,110.94,271.85,199.68c-51.82,84.44-5,249.22-.37,265a10.6,10.6,0,0,1,.67,1.78L325,562.35c.17.23.32.48.47.73a9.8,9.8,0,0,1,1.29,2.25c0,.06.08.12.12.18l74,102.06s34.62,40.73,71,90.92a474,474,0,0,1,4.58,4.54,9.13,9.13,0,0,1,1.31,1.71,165.49,165.49,0,0,0,5,5.11,8.93,8.93,0,0,1,1.94,2.15,9.14,9.14,0,0,1,2.29,2.74c1.34,1.26,2.66,2.58,3.94,4a94.48,94.48,0,0,1,9.42,11.62,9.17,9.17,0,0,1,1.41,1.77c9.09,9.92,17.19,21.06,24.79,31.34,14,18.88,24.89,46.51,24.49,70.18a11.55,11.55,0,0,1-.12,1.44,69.27,69.27,0,0,1-.36,8.33c0,.27,0,.55,0,.83a11.53,11.53,0,0,1-.19,4.53,10.93,10.93,0,0,1,.12,1.69c-.24,31.09-22.84,59-50,72.73-13.85,7-29.06,8.74-44.37,9A146,146,0,0,1,434,990.72c-43.67-3.37-91.52-16.62-91.52-16.62l-131.09-36.3L108.49,911.59l-.16-.1a9.07,9.07,0,0,1-2.85-.86,9.45,9.45,0,0,1-1.11-.36,10,10,0,0,1-2.09-.44,9.89,9.89,0,0,1-2.26-.55,11.37,11.37,0,0,1-1.15-.26,10.26,10.26,0,0,1-3.22-.64c-.14,0-.3,0-.44,0a9.59,9.59,0,0,1-1.56-.23,9.74,9.74,0,0,1-1.93-.52,10.12,10.12,0,0,1-3.52-.69,10.33,10.33,0,0,1-2.71-.51A9.54,9.54,0,0,1,84,906h-.08a4.91,4.91,0,0,1-2.52-.64,5,5,0,0,1-1.95-.44l-.58,0a4.91,4.91,0,0,1-2.46-.62c-10.74-2.17-21.07-5.36-32.07-2.56-4.7,1.2-9,3.29-13.42,5.18l-1.09.46c-7.42,5.31-14.32,13.15-20.12,24.38-32.27,62.52,46.39,117,54.45,129.07l.23.33c7,7.17,13.79,14.69,21.6,21s16.78,11.92,25,18.07a182.33,182.33,0,0,0,26.48,17c9.6,4.92,19.15,9.91,28,16.1h0a4.37,4.37,0,0,1,2.41,1.7l.05,0a9.34,9.34,0,0,1,3.63,2.34,4.36,4.36,0,0,1,.56.29,4.47,4.47,0,0,1,1,.72,4.36,4.36,0,0,1,2.08,1.6l.06,0a4.43,4.43,0,0,1,.84.4c13.57,6.36,28.58,12.8,45.32,19.19,110.92,42.35,244,42.35,244,42.35s-199.66-106.89-121-108.9c54.31,0,136.49,1.73,254.54-7.71a11.35,11.35,0,0,1,1.2-.09l12.17-1a11.33,11.33,0,0,1,1.48-.12l.39,0-.27,0H614c.13,0,.25,0,.38,0a10.5,10.5,0,0,1,3.55-.59c.34,0,.66,0,1,0a10.23,10.23,0,0,1,3-.59c29.22-6,73.44-18.81,111.57-43.06a8.72,8.72,0,0,1,1.93-1.52,8.93,8.93,0,0,1,1.51-1.57c19.48-26.57,33-73.52,33-103.13C770,907.69,753.5,851.67,749,836.72Z"/></g><g id="Lager_3" data-name="Lager 3"><path class="cls-2" d="M386.8,933.77s-94.79,2-129.07-48.4S152.86,756.3,126.64,695.8,98.41,520.34,102.44,474s50.42-161.34,50.42-161.34,68.57-129.07,90.75-153.27-48.4,127.05-48.4,127.05S160.92,421.52,175,461.85s10.08,78.65,48.4,121S294,663.53,294,663.53l74.62,80.67,52.44,78.65,14.12,50.42S435.2,937.81,386.8,933.77Z"/><path class="cls-3" d="M134.71,873.27S92.36,883.35,60.09,841-6.47,724,1.6,681.68,44,544.54,44,544.54s-8.07,30.25,4,88.74,42.35,115,42.35,115l44.37,68.57S179.08,879.32,134.71,873.27Z"/></g></svg>